<?xml version="1.0" encoding="utf-8"?>
<!-- Generator: Adobe Illustrator 19.0.0, SVG Export Plug-In . SVG Version: 6.00 Build 0)  -->
<svg version="1.1" id="Layer_1" xmlns="http://www.w3.org/2000/svg" xmlns:xlink="http://www.w3.org/1999/xlink" x="0px" y="0px"
	 viewBox="0 0 500 500" style="enable-background:new 0 0 500 500;" xml:space="preserve">
<style type="text/css">
	.st0{fill:#EFCCA3;}
	.st1{fill:#CCAC8D;}
	.st2{fill:#FFFFFF;}
	.st3{fill:#56332B;}
	.st4{fill:#442823;}
	.st5{fill:#7F4A41;}
	.st6{fill:#331712;}
</style>
<g id="XMLID_1_">
	<path id="XMLID_2_" class="st0" d="M372.9,207.8c-0.6-12.5,1.1-23.6-4.6-33c-13.7-23.4-47.9-37-116.2-37v2h-1.4h1.4v-2
		c-68.4,0-104.3,13.7-117.9,37.3c-5.4,9.7-4.8,20.5-5.7,33c-0.6,10-5.1,20.5-3.1,31.9c2.3,14.8,3.1,29.6,5.4,43.3
		c1.7,11.1,17.1,20.5,18.5,31.1c4,29.1,34.2,42.4,102.6,42.4v2.3h-1.7h0.3h1.7v-2.3c68.4,0,97.4-13.4,101.1-42.4
		c1.4-10.8,15.7-19.9,17.4-31.1c2.3-13.7,3.1-28.5,5.4-43.3C378.1,228.6,373.5,217.8,372.9,207.8z"/>
	<path id="XMLID_3_" class="st1" d="M251,218.1c12.2,0.3,20.8,8,28.8,15.1c9.4,8.3,25.4,14,31.9,21.1c6.6,7.1,15.1,14.2,18.2,25.4
		c3.1,11.1,4,25.4,4,29.1c0,3.7,2,2.8,7.7,0c13.4-6.6,28.2-24.2,28.2-24.2c-1.7,11.1-16.2,21.1-17.7,31.6
		c-3.4,29.1-31.6,43-101.4,43h-0.3h1.7"/>
	<path id="XMLID_4_" class="st1" d="M296,195.8c2.6,8.8,11.7,38.7-6,28.8c0,0,7.4,4.3,12,20.5c4.8,16.2,16.5,18.2,16.5,18.2
		s19.1,3.7,33.3-8.5c12-10.3,14-28.5,8.8-42.4c-5.1-13.7-14.2-17.9-27.6-20.8C319.7,188.4,292.9,185.9,296,195.8z"/>
	<circle id="XMLID_5_" cx="329.9" cy="228.3" r="25.1"/>
	<circle id="XMLID_6_" class="st2" cx="323.4" cy="217.2" r="6.6"/>
	<path id="XMLID_7_" class="st0" d="M291.7,227.2c0,0,22.5,15.4,34.8,30.5c12.2,15.1,12,17.9,12,17.9l-8.8,4
		c0,0-12.5-23.6-27.9-32.5c-15.7-8.8-17.4-16.2-17.4-16.2L291.7,227.2z"/>
	<path id="XMLID_8_" class="st1" d="M251.9,218.1c-12.2,0.3-21.4,8-29.6,15.1c-9.4,8.3-25.9,14-32.5,21.1
		c-6.6,7.1-15.4,14.2-18.5,25.4c-3.1,11.1-4.3,25.4-4.3,29.1c0,3.7,0.6,4-7.7,0c-13.4-6.3-28.2-24.2-28.2-24.2
		c1.7,11.1,16.2,21.1,17.7,31.6c4,29.1,32.2,43,102,43h0.3h1.1"/>
	<path id="XMLID_9_" class="st3" d="M317.9,266.2c-13.7-16.8-35.6-32.5-66.1-32.5h-0.3c-30.5,0-52.4,15.7-66.1,32.5
		c-14.2,17.4-13.1,24.2-13.1,40.7c0,59.8,21.1,42.7,35,50.1c14.2,7.1,29.1,4.8,44.2,4.8h0.3c15.4,0,29.9,2,44.2-5.1
		c14-7.1,35,10.5,35-49.3C331.3,291,332.2,283.6,317.9,266.2z"/>
	<path id="XMLID_10_" class="st4" d="M250.4,248.5c0,0-2,27.6-6,33l7.4-1.7L250.4,248.5z"/>
	<path id="XMLID_11_" class="st4" d="M252.4,248.5c0,0,2,27.6,6,33l-7.4-1.7L252.4,248.5z"/>
	<path id="XMLID_12_" class="st3" d="M228.5,242c-2.8-6.6,7.4-17.1,23.6-17.4c16.2,0,26.5,10.5,23.6,17.4
		c-2.8,6.8-13.1,8.8-23.6,9.1C241.9,250.8,231.3,248.8,228.5,242z"/>
	<path id="XMLID_13_" d="M252.1,248.5c0-1.1,9.7-1.4,14.8-4.8c0,0-10.5,3.4-12.8,2c-2.3-1.1-2.8-4.6-2.8-4.6s-0.9,3.4-2.6,4.6
		c-2,1.1-14-2-14-2s16,4,16,4.8c0,0.9-0.3,3.7-0.3,5.7c0,7.1,0,24.8,1.1,26.2c1.7,2.6,1.1-19.1,1.1-26.2
		C252.4,252,252.4,249.7,252.1,248.5z"/>
	<path id="XMLID_14_" class="st5" d="M252.7,286.7c4.8,0,13.4,3.4,21.1,8.8c-7.4-8.3-16.2-14-21.1-14c-5.1,0-16,6.3-23.6,15.4
		C237,290.7,247.3,286.7,252.7,286.7z"/>
	<path id="XMLID_15_" class="st4" d="M250.7,337.1c-10.8,0-21.4-3.4-31.1-6c-2-0.6-4,0.9-6,0.3c-17.9-5.7-32.5-15.4-41.3-27.6
		c0,0.9,0,2,0,2.8c0,59.8,21.1,43,35,50.1c14.2,7.1,29.1,4.8,44.2,4.8h0.3c15.4,0,29.9,2,44.2-5.1c14-7.1,35,10.3,35-49.6
		c0-2.3,0-4.6,0.3-6.6c-8.3,13.4-23.4,23.9-42.2,30.2c-1.7,0.6-5.7-0.9-7.4-0.6C271.5,333.4,262.4,337.1,250.7,337.1z"/>
	<path id="XMLID_16_" class="st4" d="M223.6,305c0,0-7.1,21.4-2.3,30.8l-6.6-2.8C214.8,332.9,219.7,311.2,223.6,305z"/>
	<path id="XMLID_17_" class="st4" d="M280.1,305c0,0,7.1,21.4,2.3,30.8l6.6-2.8C288.9,332.9,283.8,311.2,280.1,305z"/>
	<path id="XMLID_18_" class="st1" d="M205.4,195.8c-2.6,8.8-11.7,38.7,6,28.8c0,0-7.4,4.3-12,20.5c-4.6,16.2-16.5,18.2-16.5,18.2
		s-19.1,3.7-33.3-8.5c-12-10.3-14-28.5-8.8-42.4c5.1-14,14.2-17.9,27.6-20.8C181.8,188.4,208.3,185.9,205.4,195.8z"/>
	<path id="XMLID_19_" d="M251.9,281.6c7.7,0,31.6,16.5,31.9,36.7c0-0.3,0-0.6,0-1.1c0-21.1-19.4-37.9-31.9-37.9
		c-12.5,0-31.9,17.1-31.9,37.9c0,0.3,0,0.6,0,1.1C220.2,298.1,244.2,281.6,251.9,281.6z"/>
	
		<ellipse id="XMLID_20_" transform="matrix(-0.2497 -0.9683 0.9683 -0.2497 90.7079 546.3032)" class="st6" cx="257" cy="238" rx="4.3" ry="2.3"/>
	
		<ellipse id="XMLID_21_" transform="matrix(0.2963 -0.9551 0.9551 0.2963 -55.1444 401.2024)" class="st6" cx="244.7" cy="238" rx="4.3" ry="2.3"/>
	<circle id="XMLID_22_" cx="172.9" cy="228.3" r="25.1"/>
	<circle id="XMLID_23_" class="st2" cx="179.5" cy="217.2" r="6.6"/>
	<path id="XMLID_24_" class="st5" d="M259.3,228.6c0-0.3-6.6,2.8-8.3,3.1c-1.7-0.3-8.3-3.4-8.3-3.1c0,0,5.4,0,8.3,0
		C253.8,228.6,259.3,228.6,259.3,228.6z"/>
	<path id="XMLID_25_" class="st0" d="M209.4,227.2c0,0-22.5,15.4-34.8,30.5c-12.2,15.1-12,17.9-12,17.9l8.8,4
		c0,0,12.5-23.6,27.9-32.5c15.4-8.8,17.4-16.2,17.4-16.2L209.4,227.2z"/>
	<path id="XMLID_26_" class="st1" d="M160.1,181.6c0,0-7.7,21.1-24.8,29.9C135.3,211.5,162.1,208.4,160.1,181.6z"/>
	<path id="XMLID_27_" class="st1" d="M339.9,181.6c0,0,7.7,21.1,24.8,29.9C364.7,211.5,337.9,208.4,339.9,181.6z"/>
	<path id="XMLID_28_" class="st1" d="M291.2,220.9c0,0-16.8-17.7-39.3-18.2c-0.3,0,0.6,0,0.3,0s0.3,0,0.3,0
		c-22.8,0.6-39.3,18.2-39.3,18.2c19.7-13.7,36.5-13.4,39.3-13.4C252.1,207.5,271.5,207.2,291.2,220.9z"/>
	<path id="XMLID_29_" class="st1" d="M271.5,183.9c0,0-8.5-12-19.9-12.2h0.3h0.3c-8.5,0.3-19.7,12.2-19.7,12.2
		c9.7-9.4,19.7-9.1,19.7-9.1S261.5,174.5,271.5,183.9z"/>
	<path id="XMLID_30_" class="st1" d="M172.9,271.3c0,0-13.4,6.6-23.1,2.6h-0.3c-8.5-4.8-12.8-19.4-12.8-19.4
		S145.3,280.2,172.9,271.3z"/>
	<path id="XMLID_31_" class="st1" d="M329.1,271.3c0,0,13.4,6.6,23.1,2.6c11.4-4.8,13.1-19.4,13.1-19.4S356.7,280.2,329.1,271.3z"/>
	<path id="XMLID_32_" class="st1" d="M188.3,180.2c7.4-1.4,19.7-1.7,29.3,1.4c12.2,4.3,2.3,19.9,4.8,20.8c2.6,0.9,6-10.8,28.8-9.7
		c23.1,1.1,25.6,11.4,28.8,9.7c3.1-1.7-3.1-28.5,31.3-22.2c0,0-36.2-9.7-34.5,16.5c0,0-20.8-16-49.9-1.7
		C227.4,195,234.8,170.5,188.3,180.2z"/>
	<path id="XMLID_33_" class="st1" d="M314.5,180.2c0.6,0,0.9,0.3,1.1,0.3C315.9,180.5,315.4,180.2,314.5,180.2z"/>
	<path id="XMLID_34_" class="st1" d="M314.5,180.2"/>
	<path id="XMLID_35_" class="st1" d="M178.4,145.1c0,0-30.8,38.7-35.3,53.6c-4.6,15.1-8,76.9-12,85.7l-14.2-61l26.2-63.5
		L178.4,145.1z"/>
	<path id="XMLID_36_" class="st1" d="M323.1,145.1c0,0,30.8,38.7,35.3,53.6c4.6,15.1,8,76.9,12,85.7l14.2-61l-26.2-63.5L323.1,145.1
		z"/>
	<path id="XMLID_37_" class="st3" d="M321.6,145.1c0,0,33,27.6,42.7,59.5c9.7,31.9,5.7,70.7,13.1,75.5C388,287,400,246.3,404,242
		c6.3-6.8,27.1-24.2,28.5-27.3c1.4-3.1-42.2-50.7-61.2-60.1C348.1,143.7,319.7,142.9,321.6,145.1z"/>
	<path id="XMLID_38_" class="st4" d="M349.9,162.2c0,0,39,49.9,38.5,112l15.7-31.9C403.7,242.3,390,201.5,349.9,162.2z"/>
	<path id="XMLID_39_" class="st3" d="M178.4,145.1c0,0-33,27.6-42.7,59.5s-5.7,70.7-13.1,75.5C112,287,100,246.3,96,242
		c-6.3-6.8-27.1-24.2-28.5-27.3c-1.4-3.1,42.2-50.7,61.2-60.1C151.9,143.7,180.3,142.9,178.4,145.1z"/>
	<path id="XMLID_40_" class="st4" d="M150.1,162.2c0,0-39,49.9-38.5,112l-15.4-31.9C96.3,242.3,110,201.5,150.1,162.2z"/>
	<path id="XMLID_41_" class="st1" d="M129.1,275.3c0,0,2.8,15.4,7.4,20.2c4.6,4.8,1.4-3.7,1.4-3.7s-4.8-2.6-4-22.2
		C134.8,250,129.1,275.3,129.1,275.3z"/>
	<path id="XMLID_42_" class="st1" d="M372.1,275.3c0,0-2.8,15.4-7.4,20.2c-4.6,4.8-1.4-3.7-1.4-3.7s4.8-2.6,4-22.2
		C366.4,250,372.1,275.3,372.1,275.3z"/>
	<circle id="XMLID_43_" class="st4" cx="222.2" cy="263.6" r="2.3"/>
	<circle id="XMLID_44_" class="st4" cx="209.1" cy="277.3" r="2.3"/>
	<circle id="XMLID_45_" class="st4" cx="204.8" cy="263.6" r="2.3"/>
	<circle id="XMLID_46_" class="st4" cx="277.8" cy="263.6" r="2.3"/>
	<circle id="XMLID_47_" class="st4" cx="290.9" cy="277.3" r="2.3"/>
	<circle id="XMLID_48_" class="st4" cx="295.2" cy="263.6" r="2.3"/>
</g>
</svg>
