<?xml version="1.0" standalone="no"?>
<!DOCTYPE svg PUBLIC "-//W3C//DTD SVG 20010904//EN"
 "http://www.w3.org/TR/2001/REC-SVG-20010904/DTD/svg10.dtd">
<svg version="1.0" xmlns="http://www.w3.org/2000/svg"
 width="48.000000pt" height="48.000000pt" viewBox="0 0 48.000000 48.000000"
 preserveAspectRatio="xMidYMid meet">

<g transform="translate(0.000000,48.000000) scale(0.100000,-0.100000)"
fill="#000000" stroke="none">
<path d="M145 330 c-13 -6 -15 -9 -5 -10 9 0 6 -6 -10 -15 -27 -14 -44 -10
-20 5 8 6 10 10 4 10 -5 0 -19 -6 -29 -14 -18 -13 -18 -14 3 -25 13 -7 28 -9
34 -5 7 4 8 3 4 -4 -4 -7 -2 -12 5 -12 6 0 9 8 6 20 -3 13 0 20 9 20 8 0 14
-7 14 -16 0 -9 6 -14 13 -11 12 4 12 46 -1 58 -4 4 -16 3 -27 -1z"/>
<path d="M250 260 l0 -80 75 0 75 0 0 80 0 80 -75 0 -75 0 0 -80z m65 4 c3
-20 4 -39 1 -42 -3 -3 -6 0 -6 6 0 7 -9 12 -20 12 -11 0 -20 -5 -20 -12 0 -6
-2 -9 -5 -6 -7 7 26 78 36 78 4 0 10 -16 14 -36z m37 1 c3 -18 6 -16 21 10 21
38 22 26 2 -22 -17 -41 -29 -36 -40 17 -5 24 -4 32 3 25 6 -5 12 -19 14 -30z"/>
<path d="M286 265 c-3 -8 -1 -15 4 -15 6 0 10 7 10 15 0 8 -2 15 -4 15 -2 0
-6 -7 -10 -15z"/>
<path d="M207 253 c10 -3 9 -9 -3 -21 -14 -14 -18 -14 -28 -1 -15 20 -50 18
-54 -4 -2 -12 3 -17 18 -17 12 0 18 4 15 10 -3 6 1 7 10 3 13 -4 14 -8 4 -14
-8 -4 -10 -11 -6 -15 4 -4 21 5 37 21 28 27 31 46 7 44 -9 0 -9 -2 0 -6z"/>
<path d="M77 233 c-4 -3 -7 -11 -7 -17 0 -6 5 -4 10 4 8 13 10 13 10 -1 0 -9
8 -20 18 -24 13 -5 14 -3 5 6 -6 6 -9 18 -6 25 5 14 -18 20 -30 7z"/>
</g>
</svg>
